<?xml version="1.0" encoding="utf-8"?>
<!-- Generator: Adobe Illustrator 23.0.1, SVG Export Plug-In . SVG Version: 6.00 Build 0)  -->
<svg version="1.1" xmlns="http://www.w3.org/2000/svg" xmlns:xlink="http://www.w3.org/1999/xlink" x="0px" y="0px"
	 viewBox="0 0 150 150" style="enable-background:new 0 0 150 150;" xml:space="preserve">
<style type="text/css">
	.st0{fill:#222221;}
</style>
<g id="Layer_1">
</g>
<g id="Capa_1">
	<g id="XMLID_2024_">
		<path id="XMLID_2076_" class="st0" d="M75.77,31.14c14.48,0,16.2,0.06,21.91,0.32c5.29,0.24,8.16,1.12,10.07,1.87
			c2.53,0.98,4.34,2.16,6.24,4.06c1.9,1.9,3.07,3.7,4.06,6.24c0.74,1.91,1.63,4.78,1.87,10.07c0.26,5.72,0.32,7.43,0.32,21.91
			s-0.06,16.2-0.32,21.91c-0.24,5.29-1.12,8.16-1.87,10.07c-0.98,2.53-2.16,4.34-4.06,6.24c-1.9,1.9-3.7,3.07-6.24,4.06
			c-1.91,0.74-4.78,1.63-10.07,1.87c-5.72,0.26-7.43,0.31-21.91,0.31s-16.2-0.06-21.91-0.31c-5.29-0.24-8.16-1.12-10.07-1.87
			c-2.53-0.98-4.34-2.16-6.24-4.06c-1.9-1.9-3.07-3.7-4.06-6.24c-0.74-1.91-1.63-4.78-1.87-10.07c-0.26-5.72-0.32-7.43-0.32-21.91
			s0.06-16.2,0.32-21.91c0.24-5.29,1.13-8.16,1.87-10.07c0.98-2.53,2.16-4.34,4.06-6.24c1.9-1.9,3.7-3.07,6.24-4.06
			c1.91-0.74,4.78-1.63,10.07-1.87C59.57,31.2,61.29,31.14,75.77,31.14 M75.77,21.37c-14.73,0-16.58,0.06-22.36,0.33
			c-5.77,0.26-9.71,1.18-13.16,2.52c-3.57,1.39-6.59,3.24-9.61,6.26c-3.01,3.02-4.87,6.04-6.25,9.61
			c-1.34,3.45-2.26,7.39-2.52,13.16c-0.26,5.79-0.33,7.63-0.33,22.36c0,14.73,0.06,16.58,0.33,22.36c0.26,5.77,1.18,9.71,2.52,13.16
			c1.39,3.57,3.24,6.59,6.25,9.61c3.02,3.02,6.04,4.87,9.61,6.26c3.45,1.34,7.39,2.26,13.16,2.52c5.79,0.26,7.63,0.33,22.36,0.33
			c14.73,0,16.58-0.06,22.36-0.33c5.77-0.26,9.71-1.18,13.16-2.52c3.57-1.39,6.59-3.24,9.61-6.26s4.87-6.04,6.26-9.61
			c1.34-3.45,2.26-7.39,2.52-13.16c0.26-5.78,0.33-7.63,0.33-22.36c0-14.73-0.06-16.58-0.33-22.36c-0.26-5.77-1.18-9.71-2.52-13.16
			c-1.39-3.57-3.24-6.59-6.26-9.61c-3.02-3.02-6.04-4.87-9.61-6.26c-3.45-1.34-7.39-2.26-13.16-2.52
			C92.34,21.43,90.5,21.37,75.77,21.37"/>
		<path id="XMLID_2073_" class="st0" d="M75.77,47.76c-15.38,0-27.85,12.47-27.85,27.85c0,15.38,12.47,27.85,27.85,27.85
			c15.38,0,27.85-12.47,27.85-27.85C103.62,60.22,91.15,47.76,75.77,47.76 M75.77,93.68c-9.98,0-18.08-8.09-18.08-18.08
			c0-9.98,8.09-18.08,18.08-18.08s18.08,8.09,18.08,18.08C93.85,85.59,85.75,93.68,75.77,93.68"/>
		<path id="XMLID_2025_" class="st0" d="M111.23,46.65c0,3.59-2.91,6.51-6.51,6.51c-3.6,0-6.51-2.91-6.51-6.51
			c0-3.59,2.91-6.51,6.51-6.51C108.31,40.15,111.23,43.06,111.23,46.65"/>
	</g>
</g>
</svg>
